<?xml version="1.0" standalone="no"?>
<!DOCTYPE svg PUBLIC "-//W3C//DTD SVG 20010904//EN"
 "http://www.w3.org/TR/2001/REC-SVG-20010904/DTD/svg10.dtd">
<svg version="1.0" xmlns="http://www.w3.org/2000/svg"
 width="960.000000pt" height="960.000000pt" viewBox="0 0 960.000000 960.000000"
 preserveAspectRatio="xMidYMid meet">
<metadata>
Created by potrace 1.14, written by Peter Selinger 2001-2017
</metadata>
<g transform="translate(0.000000,960.000000) scale(0.100000,-0.100000)"
fill="#000000" stroke="none">
<path d="M4549 9426 c-2 -2 -47 -7 -99 -10 -142 -11 -192 -15 -220 -21 -14 -2
-45 -7 -70 -10 -25 -3 -74 -11 -110 -16 -36 -6 -78 -13 -95 -15 -24 -4 -303
-68 -340 -78 -5 -2 -23 -6 -40 -11 -50 -12 -319 -97 -330 -104 -5 -3 -12 -6
-15 -7 -6 -1 -19 -6 -150 -57 -58 -22 -116 -48 -130 -56 -13 -9 -27 -15 -30
-14 -10 3 -111 -45 -310 -147 -36 -19 -83 -46 -105 -61 -22 -14 -43 -27 -48
-28 -4 0 -32 -16 -62 -36 -31 -19 -60 -35 -65 -35 -6 0 -10 -4 -10 -10 0 -5
-4 -10 -9 -10 -12 0 -231 -149 -260 -177 -13 -13 -29 -23 -35 -23 -6 0 -18 -9
-26 -20 -8 -11 -18 -20 -23 -20 -5 0 -14 -6 -21 -12 -7 -7 -30 -26 -51 -43
-21 -16 -43 -35 -49 -40 -6 -6 -27 -23 -46 -39 -93 -75 -333 -304 -364 -347
-6 -8 -22 -23 -36 -32 -13 -9 -21 -17 -16 -17 5 0 -7 -16 -27 -35 -21 -20 -37
-40 -37 -45 0 -4 -4 -10 -9 -12 -15 -5 -142 -161 -235 -288 -31 -41 -60 -80
-66 -87 -5 -7 -10 -16 -10 -22 0 -5 -3 -11 -8 -13 -9 -4 -159 -236 -193 -298
-13 -25 -27 -46 -31 -48 -5 -2 -8 -8 -8 -14 0 -5 -16 -36 -35 -69 -19 -32 -31
-59 -27 -59 4 0 2 -4 -3 -8 -10 -7 -17 -21 -99 -194 -78 -163 -212 -519 -241
-638 -2 -8 -20 -76 -39 -150 -38 -145 -56 -230 -81 -380 -24 -143 -28 -171
-41 -295 -26 -256 -26 -708 0 -950 8 -67 17 -141 21 -165 3 -14 7 -47 10 -74
3 -27 7 -51 9 -55 2 -3 7 -28 10 -56 4 -27 11 -66 16 -85 5 -19 11 -46 13 -60
14 -76 85 -351 104 -400 3 -8 7 -22 9 -31 3 -13 73 -213 91 -259 4 -8 7 -17 7
-20 2 -10 69 -165 100 -230 17 -36 31 -67 31 -70 1 -9 112 -224 147 -285 19
-33 44 -76 54 -95 10 -19 22 -36 27 -38 4 -2 7 -8 7 -13 0 -12 174 -275 201
-305 11 -11 19 -25 19 -31 0 -6 4 -13 8 -15 5 -2 36 -39 70 -83 33 -44 75 -95
91 -113 17 -18 31 -36 31 -40 0 -4 8 -15 18 -23 9 -9 52 -55 95 -102 125 -137
255 -264 393 -382 32 -27 68 -60 81 -72 13 -12 23 -19 23 -15 0 4 4 2 8 -4 10
-15 201 -160 282 -214 36 -24 67 -47 68 -52 2 -4 8 -8 12 -8 5 0 48 -25 95
-55 46 -30 87 -55 90 -55 3 0 22 -10 43 -23 67 -42 335 -185 348 -186 2 0 32
-13 67 -29 65 -30 219 -96 227 -98 3 0 12 -3 20 -7 46 -18 246 -88 259 -91 9
-2 23 -6 31 -9 49 -19 326 -91 400 -103 14 -3 33 -7 42 -10 10 -3 28 -7 40 -9
13 -2 37 -7 53 -10 17 -3 57 -9 90 -14 33 -6 78 -13 100 -16 56 -9 94 -13 305
-32 169 -15 732 -7 833 13 12 2 47 6 77 10 30 3 66 7 80 9 14 3 43 7 65 10 22
4 47 8 55 10 8 2 33 7 55 10 23 3 52 8 65 11 14 3 36 7 50 10 118 24 429 106
449 118 4 3 18 7 32 10 64 13 453 166 549 216 19 10 80 41 135 68 116 58 168
85 175 92 3 3 21 14 40 24 46 25 244 148 250 155 3 3 32 24 65 45 56 36 214
152 225 166 3 3 29 23 58 45 28 21 52 43 52 47 0 4 5 8 10 8 6 0 18 8 28 17
10 10 56 52 101 93 87 78 271 259 271 266 0 2 15 18 33 37 50 51 96 105 167
192 87 107 82 100 144 185 31 41 60 80 66 87 5 7 10 16 10 22 0 5 3 11 8 13 9
4 159 236 193 298 13 25 27 47 32 48 4 2 7 8 7 14 0 5 16 36 35 69 19 32 31
59 27 59 -4 0 -2 4 3 8 14 10 129 248 127 262 -1 3 5 14 12 25 16 26 98 235
106 270 1 6 5 15 9 20 11 13 98 292 116 370 2 6 10 38 19 73 18 68 64 286 72
342 3 19 7 46 9 60 3 14 7 45 10 70 3 25 7 61 10 80 24 177 29 266 29 550 1
304 -5 407 -39 650 -3 19 -7 52 -10 74 -2 21 -7 46 -9 55 -3 9 -7 34 -11 56
-25 171 -152 643 -214 790 -5 11 -13 31 -18 45 -6 14 -21 50 -33 80 -12 30
-26 64 -31 75 -28 70 -155 333 -193 400 -58 104 -76 135 -115 199 -48 77 -199
304 -215 323 -14 16 -25 29 -61 78 -16 22 -34 45 -40 51 -5 7 -28 35 -50 63
-22 28 -43 51 -47 51 -5 0 -8 6 -8 13 0 7 -8 20 -17 28 -10 9 -53 55 -96 102
-122 134 -249 258 -383 374 -27 23 -62 53 -79 68 -50 43 -256 199 -325 245
-36 24 -66 47 -68 52 -2 4 -8 8 -12 8 -5 0 -48 25 -95 55 -46 30 -87 55 -90
55 -3 0 -24 12 -48 27 -98 62 -348 188 -492 248 -91 37 -142 59 -162 66 -13 5
-33 13 -45 19 -46 19 -381 126 -424 135 -11 2 -59 13 -109 25 -49 12 -101 24
-115 26 -14 3 -33 7 -42 10 -10 3 -29 7 -43 10 -14 2 -37 6 -52 9 -16 3 -55 9
-88 14 -33 6 -78 13 -100 16 -47 8 -76 11 -165 19 -36 3 -90 9 -120 12 -58 7
-605 15 -611 10z"/>
</g>
</svg>
